<?xml version="1.0" encoding="UTF-8"?>
<svg id="_Слой_2" data-name="Слой 2" xmlns="http://www.w3.org/2000/svg" viewBox="0 0 587.47 529.3">
  <defs>
    <style>
      .cls-1 {
        fill: none;
        stroke: #000;
        stroke-miterlimit: 10;
      }

      .cls-2 {
        stroke-width: 0px;
      }
    </style>
  </defs>
  <g>
    <polygon class="cls-2" points="196.28 57.1 364.28 1.1 226.28 147.1 2.28 211.1 196.28 57.1"/>
    <polygon class="cls-1" points="2.28 211.1 196.28 57.1 364.28 1.1 226.28 147.1 2.28 211.1"/>
  </g>
  <g>
    <polygon class="cls-2" points="300.78 228.49 278.28 211.1 251.28 145.1 388.28 1.1 417.28 64.1 300.78 228.49"/>
    <polygon class="cls-1" points="388.28 1.1 251.28 145.1 278.28 211.1 300.78 228.49 417.28 64.1 388.28 1.1"/>
  </g>
  <g>
    <polygon class="cls-2" points="586.28 28.1 190.28 432.1 189.78 418.71 466.28 28.1 586.28 28.1"/>
    <polygon class="cls-1" points="466.28 28.1 189.78 418.71 190.28 432.1 586.28 28.1 466.28 28.1"/>
  </g>
  <g>
    <polygon class="cls-2" points="484.28 194.1 146.28 528.1 146.28 501.04 187.78 459.71 484.28 160.1 484.28 194.1"/>
    <polygon class="cls-1" points="187.78 459.71 484.28 160.1 484.28 194.1 146.28 528.1 146.28 501.04 187.78 459.71"/>
  </g>
</svg>