<?xml version="1.0" encoding="UTF-8"?>
<!DOCTYPE svg PUBLIC "-//W3C//DTD SVG 1.1//EN" "http://www.w3.org/Graphics/SVG/1.1/DTD/svg11.dtd">
<svg xmlns="http://www.w3.org/2000/svg" version="1.1" width="512px" height="512px" style="shape-rendering:geometricPrecision; text-rendering:geometricPrecision; image-rendering:optimizeQuality; fill-rule:evenodd; clip-rule:evenodd" xmlns:xlink="http://www.w3.org/1999/xlink">
<g><path style="opacity:0.012" fill="#000000" d="M 401.5,125.5 C 399.663,125.361 399.33,124.694 400.5,123.5C 401.298,123.957 401.631,124.624 401.5,125.5 Z"/></g>
<g><path style="opacity:0.012" fill="#000000" d="M 401.5,125.5 C 403.337,125.639 403.67,126.306 402.5,127.5C 401.702,127.043 401.369,126.376 401.5,125.5 Z"/></g>
<g><path style="opacity:0.004" fill="#000000" d="M 274.5,127.5 C 275.833,128.167 275.833,128.167 274.5,127.5 Z"/></g>
<g><path style="opacity:0.957" fill="#000000" d="M 250.5,166.5 C 242.132,173.867 234.465,181.867 227.5,190.5C 223.536,193.963 219.702,197.63 216,201.5C 185.429,211.022 154.763,221.022 124,231.5C 122.989,230.663 121.822,230.33 120.5,230.5C 117.857,227.66 117.024,224.327 118,220.5C 121.692,217.635 125.192,214.635 128.5,211.5C 131.792,209.542 134.792,207.209 137.5,204.5C 140.117,203.214 142.45,201.547 144.5,199.5C 158.272,189.628 171.606,179.294 184.5,168.5C 188.207,166.312 191.54,163.645 194.5,160.5C 197.794,158.842 200.794,156.676 203.5,154C 210.8,151.629 217.8,148.796 224.5,145.5C 239.105,140.242 253.771,135.076 268.5,130C 275.438,127.94 278.271,130.44 277,137.5C 267.96,147.037 259.127,156.704 250.5,166.5 Z"/></g>
<g><path style="opacity:0.004" fill="#000000" d="M 294.5,131.5 C 295.833,132.167 295.833,132.167 294.5,131.5 Z"/></g>
<g><path style="opacity:0.959" fill="#000000" d="M 298.5,136.5 C 302.958,144.957 306.958,153.624 310.5,162.5C 309.611,165.279 308.444,167.945 307,170.5C 302.198,176.122 298.031,182.122 294.5,188.5C 285.769,198.96 277.769,209.96 270.5,221.5C 266.22,226.79 261.887,232.123 257.5,237.5C 254.636,238.594 251.969,238.094 249.5,236C 246.882,233.261 244.382,230.427 242,227.5C 239.052,217.253 236.552,206.92 234.5,196.5C 235.706,193.125 237.54,190.125 240,187.5C 248.414,178.95 256.581,170.283 264.5,161.5C 270.559,156.443 275.893,150.776 280.5,144.5C 283.548,142.118 286.215,139.452 288.5,136.5C 290.344,135.84 292.01,134.84 293.5,133.5C 295.423,134.092 297.089,135.092 298.5,136.5 Z"/></g>
<g><path style="opacity:0.008" fill="#000000" d="M 288.5,136.5 C 287.833,135.167 287.833,135.167 288.5,136.5 Z"/></g>
<g><path style="opacity:0.004" fill="#000000" d="M 298.5,135.5 C 299.833,136.167 299.833,136.167 298.5,135.5 Z"/></g>
<g><path style="opacity:0.004" fill="#000000" d="M 301.5,135.5 C 302.833,136.167 302.833,136.167 301.5,135.5 Z"/></g>
<g><path style="opacity:0.004" fill="#000000" d="M 242.5,136.5 C 243.833,137.167 243.833,137.167 242.5,136.5 Z"/></g>
<g><path style="opacity:0.008" fill="#000000" d="M 239.5,138.5 C 239.897,137.475 240.563,137.308 241.5,138C 240.906,138.464 240.239,138.631 239.5,138.5 Z"/></g>
<g><path style="opacity:0.008" fill="#000000" d="M 300.5,137.5 C 301.833,138.167 301.833,138.167 300.5,137.5 Z"/></g>
<g><path style="opacity:0.004" fill="#000000" d="M 301.5,139.5 C 302.833,140.167 302.833,140.167 301.5,139.5 Z"/></g>
<g><path style="opacity:0.954" fill="#000000" d="M 375.5,166.5 C 369.203,171.129 363.537,176.462 358.5,182.5C 355.833,184.5 353.5,186.833 351.5,189.5C 350.833,189.5 350.5,189.833 350.5,190.5C 347.5,192.833 344.833,195.5 342.5,198.5C 339.5,200.833 336.833,203.5 334.5,206.5C 333.761,206.369 333.094,206.536 332.5,207C 330.636,209.688 328.636,212.188 326.5,214.5C 323.527,216.806 320.86,219.473 318.5,222.5C 315.5,224.833 312.833,227.5 310.5,230.5C 307.5,232.833 304.833,235.5 302.5,238.5C 299.5,240.833 296.833,243.5 294.5,246.5C 291.5,248.833 288.833,251.5 286.5,254.5C 283.5,256.833 280.833,259.5 278.5,262.5C 275.5,264.833 272.833,267.5 270.5,270.5C 251.419,288.914 232.752,307.581 214.5,326.5C 212.265,327.228 210.432,328.561 209,330.5C 208.056,329.737 207.556,328.737 207.5,327.5C 208.187,325.823 208.854,324.156 209.5,322.5C 210.906,322.027 211.573,321.027 211.5,319.5C 213.547,317.45 215.214,315.117 216.5,312.5C 219.857,308.465 222.857,304.132 225.5,299.5C 226.906,299.027 227.573,298.027 227.5,296.5C 243.241,275.747 258.241,254.414 272.5,232.5C 283.901,218.036 294.567,203.036 304.5,187.5C 305.906,187.027 306.573,186.027 306.5,184.5C 308.984,182.2 310.984,179.533 312.5,176.5C 315.883,172.447 318.883,168.114 321.5,163.5C 326.724,156.743 331.724,149.743 336.5,142.5C 338.49,141.127 340.657,140.127 343,139.5C 358.759,140.325 374.593,140.825 390.5,141C 393.097,143.317 393.93,146.15 393,149.5C 387.629,155.705 381.796,161.372 375.5,166.5 Z"/></g>
<g><path style="opacity:0.004" fill="#000000" d="M 280.5,144.5 C 279.833,143.167 279.833,143.167 280.5,144.5 Z"/></g>
<g><path style="opacity:0.004" fill="#000000" d="M 309.5,143.5 C 310.833,144.167 310.833,144.167 309.5,143.5 Z"/></g>
<g><path style="opacity:0.004" fill="#000000" d="M 224.5,145.5 C 223.833,144.167 223.833,144.167 224.5,145.5 Z"/></g>
<g><path style="opacity:0.004" fill="#000000" d="M 331.5,145.5 C 332.833,146.167 332.833,146.167 331.5,145.5 Z"/></g>
<g><path style="opacity:0.012" fill="#000000" d="M 269.5,147.5 C 270.833,148.167 270.833,148.167 269.5,147.5 Z"/></g>
<g><path style="opacity:0.004" fill="#000000" d="M 267.5,149.5 C 268.833,150.167 268.833,150.167 267.5,149.5 Z"/></g>
<g><path style="opacity:0.004" fill="#000000" d="M 393.5,150.5 C 394.833,151.167 394.833,151.167 393.5,150.5 Z"/></g>
<g><path style="opacity:0.008" fill="#000000" d="M 307.5,151.5 C 308.833,152.167 308.833,152.167 307.5,151.5 Z"/></g>
<g><path style="opacity:0.004" fill="#000000" d="M 199.5,154.5 C 200.833,155.167 200.833,155.167 199.5,154.5 Z"/></g>
<g><path style="opacity:0.004" fill="#000000" d="M 262.5,154.5 C 263.833,155.167 263.833,155.167 262.5,154.5 Z"/></g>
<g><path style="opacity:0.004" fill="#000000" d="M 390.5,154.5 C 391.833,155.167 391.833,155.167 390.5,154.5 Z"/></g>
<g><path style="opacity:0.008" fill="#000000" d="M 262.5,155.5 C 261.833,156.167 261.833,156.167 262.5,155.5 Z"/></g>
<g><path style="opacity:0.004" fill="#000000" d="M 196.5,156.5 C 197.833,157.167 197.833,157.167 196.5,156.5 Z"/></g>
<g><path style="opacity:0.008" fill="#000000" d="M 259.5,157.5 C 260.833,158.167 260.833,158.167 259.5,157.5 Z"/></g>
<g><path style="opacity:0.004" fill="#000000" d="M 390.5,157.5 C 391.833,158.167 391.833,158.167 390.5,157.5 Z"/></g>
<g><path style="opacity:0.008" fill="#000000" d="M 259.5,158.5 C 258.833,159.167 258.833,159.167 259.5,158.5 Z"/></g>
<g><path style="opacity:0.004" fill="#000000" d="M 261.5,158.5 C 262.833,159.167 262.833,159.167 261.5,158.5 Z"/></g>
<g><path style="opacity:0.004" fill="#000000" d="M 194.5,160.5 C 193.833,159.167 193.833,159.167 194.5,160.5 Z"/></g>
<g><path style="opacity:0.004" fill="#000000" d="M 319.5,159.5 C 320.833,160.167 320.833,160.167 319.5,159.5 Z"/></g>
<g><path style="opacity:0.004" fill="#000000" d="M 321.5,159.5 C 322.833,160.167 322.833,160.167 321.5,159.5 Z"/></g>
<g><path style="opacity:0.004" fill="#000000" d="M 191.5,160.5 C 192.833,161.167 192.833,161.167 191.5,160.5 Z"/></g>
<g><path style="opacity:0.004" fill="#000000" d="M 264.5,161.5 C 263.833,160.167 263.833,160.167 264.5,161.5 Z"/></g>
<g><path style="opacity:0.004" fill="#000000" d="M 321.5,163.5 C 320.475,163.103 320.308,162.437 321,161.5C 321.464,162.094 321.631,162.761 321.5,163.5 Z"/></g>
<g><path style="opacity:0.004" fill="#000000" d="M 259.5,163.5 C 260.833,164.167 260.833,164.167 259.5,163.5 Z"/></g>
<g><path style="opacity:0.004" fill="#000000" d="M 377.5,165.5 C 378.833,166.167 378.833,166.167 377.5,165.5 Z"/></g>
<g><path style="opacity:0.004" fill="#000000" d="M 250.5,166.5 C 251.833,167.167 251.833,167.167 250.5,166.5 Z"/></g>
<g><path style="opacity:0.004" fill="#000000" d="M 375.5,166.5 C 376.833,167.167 376.833,167.167 375.5,166.5 Z"/></g>
<g><path style="opacity:0.008" fill="#000000" d="M 184.5,168.5 C 183.833,167.167 183.833,167.167 184.5,168.5 Z"/></g>
<g><path style="opacity:0.004" fill="#000000" d="M 372.5,170.5 C 373.833,171.167 373.833,171.167 372.5,170.5 Z"/></g>
<g><path style="opacity:0.004" fill="#000000" d="M 307.5,174.5 C 308.833,175.167 308.833,175.167 307.5,174.5 Z"/></g>
<g><path style="opacity:0.004" fill="#000000" d="M 248.5,175.5 C 249.833,176.167 249.833,176.167 248.5,175.5 Z"/></g>
<g><path style="opacity:0.004" fill="#000000" d="M 312.5,176.5 C 311.833,175.167 311.833,175.167 312.5,176.5 Z"/></g>
<g><path style="opacity:0.004" fill="#000000" d="M 170.5,176.5 C 171.833,177.167 171.833,177.167 170.5,176.5 Z"/></g>
<g><path style="opacity:0.012" fill="#000000" d="M 248.5,176.5 C 247.833,177.167 247.833,177.167 248.5,176.5 Z"/></g>
<g><path style="opacity:0.008" fill="#000000" d="M 245.5,178.5 C 246.833,179.167 246.833,179.167 245.5,178.5 Z"/></g>
<g><path style="opacity:0.004" fill="#000000" d="M 237.5,180.5 C 238.833,181.167 238.833,181.167 237.5,180.5 Z"/></g>
<g><path style="opacity:0.004" fill="#000000" d="M 243.5,180.5 C 244.833,181.167 244.833,181.167 243.5,180.5 Z"/></g>
<g><path style="opacity:0.004" fill="#000000" d="M 299.5,182.5 C 300.833,183.167 300.833,183.167 299.5,182.5 Z"/></g>
<g><path style="opacity:0.024" fill="#000000" d="M 358.5,182.5 C 359.833,183.167 359.833,183.167 358.5,182.5 Z"/></g>
<g><path style="opacity:0.004" fill="#000000" d="M 159.5,183.5 C 160.833,184.167 160.833,184.167 159.5,183.5 Z"/></g>
<g><path style="opacity:0.004" fill="#000000" d="M 240.5,183.5 C 241.833,184.167 241.833,184.167 240.5,183.5 Z"/></g>
<g><path style="opacity:0.004" fill="#000000" d="M 306.5,184.5 C 305.833,183.167 305.833,183.167 306.5,184.5 Z"/></g>
<g><path style="opacity:0.004" fill="#000000" d="M 240.5,184.5 C 239.833,185.167 239.833,185.167 240.5,184.5 Z"/></g>
<g><path style="opacity:0.004" fill="#000000" d="M 304.5,187.5 C 303.833,186.167 303.833,186.167 304.5,187.5 Z"/></g>
<g><path style="opacity:0.004" fill="#000000" d="M 359.5,187.5 C 360.833,188.167 360.833,188.167 359.5,187.5 Z"/></g>
<g><path style="opacity:0.004" fill="#000000" d="M 152.5,188.5 C 153.833,189.167 153.833,189.167 152.5,188.5 Z"/></g>
<g><path style="opacity:0.008" fill="#000000" d="M 294.5,188.5 C 295.833,189.167 295.833,189.833 294.5,190.5C 294.5,189.833 294.5,189.167 294.5,188.5 Z"/></g>
<g><path style="opacity:0.902" fill="#000000" d="M 366.5,201.5 C 364.372,203.446 362.039,205.279 359.5,207C 358.695,208.113 358.028,209.279 357.5,210.5C 356.167,211.167 355.167,212.167 354.5,213.5C 351.833,214.167 350.167,215.833 349.5,218.5C 348.167,219.167 347.167,220.167 346.5,221.5C 344.167,222.5 342.5,224.167 341.5,226.5C 340.167,227.167 339.167,228.167 338.5,229.5C 335.833,230.167 334.167,231.833 333.5,234.5C 332.167,235.167 331.167,236.167 330.5,237.5C 327.833,238.167 326.167,239.833 325.5,242.5C 324.167,243.167 323.167,244.167 322.5,245.5C 319.833,246.167 318.167,247.833 317.5,250.5C 316.167,251.167 315.167,252.167 314.5,253.5C 311.403,255.651 308.737,258.317 306.5,261.5C 295.5,271.833 284.833,282.5 274.5,293.5C 272.227,293.957 270.894,295.29 270.5,297.5C 255.891,310.441 241.891,324.108 228.5,338.5C 219.446,346.887 210.779,355.554 202.5,364.5C 196.234,369.927 190.068,375.594 184,381.5C 179.44,383.456 175.94,382.29 173.5,378C 183.728,366.611 194.061,355.444 204.5,344.5C 218.113,331.554 231.446,318.221 244.5,304.5C 254.637,295.367 263.971,285.7 272.5,275.5C 273.239,275.631 273.906,275.464 274.5,275C 276.648,272.491 278.648,269.991 280.5,267.5C 281.239,267.631 281.906,267.464 282.5,267C 284.648,264.491 286.648,261.991 288.5,259.5C 292.027,257.728 294.693,255.062 296.5,251.5C 299.882,249.451 302.549,246.785 304.5,243.5C 307.5,241.167 310.167,238.5 312.5,235.5C 316.833,231.833 320.833,227.833 324.5,223.5C 325.833,222.833 326.833,221.833 327.5,220.5C 329.5,219.167 331.167,217.5 332.5,215.5C 339.5,209.167 346.167,202.5 352.5,195.5C 355.069,194.604 357.069,192.938 358.5,190.5C 362.276,187.372 365.11,188.039 367,192.5C 367.634,195.555 367.468,198.555 366.5,201.5 Z"/></g>
<g><path style="opacity:0.008" fill="#000000" d="M 366.5,188.5 C 367.833,189.167 367.833,189.167 366.5,188.5 Z"/></g>
<g><path style="opacity:0.004" fill="#000000" d="M 351.5,189.5 C 352.833,190.167 352.833,190.167 351.5,189.5 Z"/></g>
<g><path style="opacity:0.004" fill="#000000" d="M 227.5,190.5 C 228.239,190.369 228.906,190.536 229.5,191C 228.563,191.692 227.897,191.525 227.5,190.5 Z"/></g>
<g><path style="opacity:0.02" fill="#000000" d="M 294.5,190.5 C 293.833,191.167 293.833,191.167 294.5,190.5 Z"/></g>
<g><path style="opacity:0.031" fill="#000000" d="M 350.5,190.5 C 350.833,190.5 351.167,190.5 351.5,190.5C 351.315,191.17 350.981,191.17 350.5,190.5 Z"/></g>
<g><path style="opacity:0.004" fill="#000000" d="M 150.5,191.5 C 151.833,192.167 151.833,192.167 150.5,191.5 Z"/></g>
<g><path style="opacity:0.004" fill="#000000" d="M 299.5,191.5 C 300.833,192.167 300.833,192.167 299.5,191.5 Z"/></g>
<g><path style="opacity:0.004" fill="#000000" d="M 299.5,192.5 C 298.833,193.167 298.833,193.167 299.5,192.5 Z"/></g>
<g><path style="opacity:0.004" fill="#000000" d="M 225.5,193.5 C 226.833,194.167 226.833,194.167 225.5,193.5 Z"/></g>
<g><path style="opacity:0.004" fill="#000000" d="M 290.5,194.5 C 291.833,195.167 291.833,195.167 290.5,194.5 Z"/></g>
<g><path style="opacity:0.004" fill="#000000" d="M 352.5,195.5 C 351.833,194.167 351.833,194.167 352.5,195.5 Z"/></g>
<g><path style="opacity:0.004" fill="#000000" d="M 144.5,199.5 C 143.833,198.167 143.833,198.167 144.5,199.5 Z"/></g>
<g><path style="opacity:0.039" fill="#000000" d="M 342.5,198.5 C 343.833,199.167 343.833,199.167 342.5,198.5 Z"/></g>
<g><path style="opacity:0.004" fill="#000000" d="M 293.5,199.5 C 294.833,200.167 294.833,200.167 293.5,199.5 Z"/></g>
<g><path style="opacity:0.004" fill="#000000" d="M 138.5,201.5 C 139.833,202.167 139.833,202.167 138.5,201.5 Z"/></g>
<g><path style="opacity:0.004" fill="#000000" d="M 366.5,201.5 C 367.833,202.167 367.833,202.167 366.5,201.5 Z"/></g>
<g><path style="opacity:0.004" fill="#000000" d="M 214.5,202.5 C 215.833,203.167 215.833,203.167 214.5,202.5 Z"/></g>
<g><path style="opacity:0.004" fill="#000000" d="M 137.5,204.5 C 136.833,203.167 136.833,203.167 137.5,204.5 Z"/></g>
<g><path style="opacity:0.004" fill="#000000" d="M 211.5,203.5 C 212.833,204.167 212.833,204.167 211.5,203.5 Z"/></g>
<g><path style="opacity:0.008" fill="#000000" d="M 365.5,203.5 C 366.833,204.167 366.833,204.167 365.5,203.5 Z"/></g>
<g><path style="opacity:0.012" fill="#000000" d="M 234.5,206.5 C 235.833,207.167 235.833,207.167 234.5,206.5 Z"/></g>
<g><path style="opacity:0.031" fill="#000000" d="M 334.5,206.5 C 335.833,207.167 335.833,207.167 334.5,206.5 Z"/></g>
<g><path style="opacity:0.016" fill="#000000" d="M 365.5,206.5 C 366.833,207.167 366.833,207.167 365.5,206.5 Z"/></g>
<g><path style="opacity:0.004" fill="#000000" d="M 130.5,207.5 C 131.833,208.167 131.833,208.167 130.5,207.5 Z"/></g>
<g><path style="opacity:0.004" fill="#000000" d="M 130.5,208.5 C 129.833,209.167 129.833,209.167 130.5,208.5 Z"/></g>
<g><path style="opacity:0.004" fill="#000000" d="M 128.5,211.5 C 127.833,210.167 127.833,210.167 128.5,211.5 Z"/></g>
<g><path style="opacity:0.008" fill="#000000" d="M 357.5,210.5 C 358.833,211.167 358.833,211.167 357.5,210.5 Z"/></g>
<g><path style="opacity:0.004" fill="#000000" d="M 284.5,212.5 C 285.833,213.167 285.833,213.167 284.5,212.5 Z"/></g>
<g><path style="opacity:0.012" fill="#000000" d="M 181.5,214.5 C 181.897,213.475 182.563,213.308 183.5,214C 182.906,214.464 182.239,214.631 181.5,214.5 Z"/></g>
<g><path style="opacity:0.008" fill="#000000" d="M 354.5,213.5 C 355.833,214.167 355.833,214.167 354.5,213.5 Z"/></g>
<g><path style="opacity:0.012" fill="#000000" d="M 357.5,213.5 C 358.833,214.167 358.833,214.167 357.5,213.5 Z"/></g>
<g><path style="opacity:0.004" fill="#000000" d="M 283.5,214.5 C 284.833,215.167 284.833,215.167 283.5,214.5 Z"/></g>
<g><path style="opacity:0.051" fill="#000000" d="M 326.5,214.5 C 327.833,215.167 327.833,215.167 326.5,214.5 Z"/></g>
<g><path style="opacity:0.004" fill="#000000" d="M 332.5,215.5 C 331.833,214.167 331.833,214.167 332.5,215.5 Z"/></g>
<g><path style="opacity:0.004" fill="#000000" d="M 112.5,215.5 C 113.833,216.167 113.833,216.167 112.5,215.5 Z"/></g>
<g><path style="opacity:0.004" fill="#000000" d="M 349.5,218.5 C 350.833,219.167 350.833,219.167 349.5,218.5 Z"/></g>
<g><path style="opacity:0.012" fill="#000000" d="M 327.5,220.5 C 326.833,219.167 326.833,219.167 327.5,220.5 Z"/></g>
<g><path style="opacity:0.004" fill="#000000" d="M 270.5,221.5 C 271.833,222.167 271.833,222.167 270.5,221.5 Z"/></g>
<g><path style="opacity:0.004" fill="#000000" d="M 346.5,221.5 C 347.833,222.167 347.833,222.167 346.5,221.5 Z"/></g>
<g><path style="opacity:0.016" fill="#000000" d="M 349.5,221.5 C 350.833,222.167 350.833,222.167 349.5,221.5 Z"/></g>
<g><path style="opacity:0.055" fill="#000000" d="M 318.5,222.5 C 319.833,223.167 319.833,223.167 318.5,222.5 Z"/></g>
<g><path style="opacity:0.004" fill="#000000" d="M 324.5,223.5 C 323.833,222.167 323.833,222.167 324.5,223.5 Z"/></g>
<g><path style="opacity:0.004" fill="#000000" d="M 239.5,225.5 C 240.833,226.167 240.833,226.167 239.5,225.5 Z"/></g>
<g><path style="opacity:0.004" fill="#000000" d="M 275.5,225.5 C 276.833,226.167 276.833,226.167 275.5,225.5 Z"/></g>
<g><path style="opacity:0.008" fill="#000000" d="M 142.5,226.5 C 143.833,227.167 143.833,227.167 142.5,226.5 Z"/></g>
<g><path style="opacity:0.004" fill="#000000" d="M 341.5,226.5 C 342.833,227.167 342.833,227.167 341.5,226.5 Z"/></g>
<g><path style="opacity:0.004" fill="#000000" d="M 139.5,227.5 C 140.833,228.167 140.833,228.167 139.5,227.5 Z"/></g>
<g><path style="opacity:0.004" fill="#000000" d="M 269.5,227.5 C 270.833,228.167 270.833,228.167 269.5,227.5 Z"/></g>
<g><path style="opacity:0.012" fill="#000000" d="M 135.5,228.5 C 136.833,229.167 136.833,229.167 135.5,228.5 Z"/></g>
<g><path style="opacity:0.004" fill="#000000" d="M 150.5,228.5 C 151.833,229.167 151.833,229.167 150.5,228.5 Z"/></g>
<g><path style="opacity:0.004" fill="#000000" d="M 338.5,229.5 C 339.833,230.167 339.833,230.167 338.5,229.5 Z"/></g>
<g><path style="opacity:0.012" fill="#000000" d="M 341.5,229.5 C 342.833,230.167 342.833,230.167 341.5,229.5 Z"/></g>
<g><path style="opacity:0.012" fill="#000000" d="M 120.5,230.5 C 119.833,231.167 119.833,231.167 120.5,230.5 Z"/></g>
<g><path style="opacity:0.004" fill="#000000" d="M 240.5,230.5 C 241.833,231.167 241.833,231.167 240.5,230.5 Z"/></g>
<g><path style="opacity:0.004" fill="#000000" d="M 269.5,230.5 C 270.833,231.167 270.833,231.167 269.5,230.5 Z"/></g>
<g><path style="opacity:0.012" fill="#000000" d="M 310.5,230.5 C 311.833,231.167 311.833,231.167 310.5,230.5 Z"/></g>
<g><path style="opacity:0.004" fill="#000000" d="M 264.5,231.5 C 265.833,232.167 265.833,232.167 264.5,231.5 Z"/></g>
<g><path style="opacity:0.039" fill="#000000" d="M 272.5,232.5 C 271.833,231.167 271.833,231.167 272.5,232.5 Z"/></g>
<g><path style="opacity:0.004" fill="#000000" d="M 312.5,235.5 C 311.833,234.167 311.833,234.167 312.5,235.5 Z"/></g>
<g><path style="opacity:0.004" fill="#000000" d="M 333.5,234.5 C 334.833,235.167 334.833,235.167 333.5,234.5 Z"/></g>
<g><path style="opacity:0.004" fill="#000000" d="M 260.5,235.5 C 261.833,236.167 261.833,236.167 260.5,235.5 Z"/></g>
<g><path style="opacity:0.004" fill="#000000" d="M 248.5,238.5 C 248.897,237.475 249.563,237.308 250.5,238C 249.906,238.464 249.239,238.631 248.5,238.5 Z"/></g>
<g><path style="opacity:0.004" fill="#000000" d="M 330.5,237.5 C 331.833,238.167 331.833,238.167 330.5,237.5 Z"/></g>
<g><path style="opacity:0.012" fill="#000000" d="M 333.5,237.5 C 334.833,238.167 334.833,238.167 333.5,237.5 Z"/></g>
<g><path style="opacity:0.004" fill="#000000" d="M 266.5,238.5 C 267.833,239.167 267.833,239.167 266.5,238.5 Z"/></g>
<g><path style="opacity:0.004" fill="#000000" d="M 302.5,238.5 C 303.833,239.167 303.833,239.167 302.5,238.5 Z"/></g>
<g><path style="opacity:0.004" fill="#000000" d="M 304.5,243.5 C 303.475,243.103 303.308,242.437 304,241.5C 304.464,242.094 304.631,242.761 304.5,243.5 Z"/></g>
<g><path style="opacity:0.004" fill="#000000" d="M 325.5,242.5 C 326.833,243.167 326.833,243.167 325.5,242.5 Z"/></g>
<g><path style="opacity:0.004" fill="#000000" d="M 322.5,245.5 C 323.833,246.167 323.833,246.167 322.5,245.5 Z"/></g>
<g><path style="opacity:0.012" fill="#000000" d="M 325.5,245.5 C 326.833,246.167 326.833,246.167 325.5,245.5 Z"/></g>
<g><path style="opacity:0.027" fill="#000000" d="M 294.5,246.5 C 295.833,247.167 295.833,247.167 294.5,246.5 Z"/></g>
<g><path style="opacity:0.004" fill="#000000" d="M 259.5,248.5 C 260.833,249.167 260.833,249.167 259.5,248.5 Z"/></g>
<g><path style="opacity:0.004" fill="#000000" d="M 292.5,249.5 C 293.833,250.167 293.833,250.167 292.5,249.5 Z"/></g>
<g><path style="opacity:0.004" fill="#000000" d="M 296.5,251.5 C 295.833,250.167 295.833,250.167 296.5,251.5 Z"/></g>
<g><path style="opacity:0.004" fill="#000000" d="M 317.5,250.5 C 318.833,251.167 318.833,251.167 317.5,250.5 Z"/></g>
<g><path style="opacity:0.004" fill="#000000" d="M 289.5,252.5 C 290.833,253.167 290.833,253.167 289.5,252.5 Z"/></g>
<g><path style="opacity:0.004" fill="#000000" d="M 292.5,252.5 C 293.833,253.167 293.833,253.167 292.5,252.5 Z"/></g>
<g><path style="opacity:0.004" fill="#000000" d="M 314.5,253.5 C 315.833,254.167 315.833,254.167 314.5,253.5 Z"/></g>
<g><path style="opacity:0.012" fill="#000000" d="M 317.5,253.5 C 318.833,254.167 318.833,254.167 317.5,253.5 Z"/></g>
<g><path style="opacity:0.027" fill="#000000" d="M 286.5,254.5 C 287.833,255.167 287.833,255.167 286.5,254.5 Z"/></g>
<g><path style="opacity:0.008" fill="#000000" d="M 288.5,259.5 C 287.833,258.167 287.833,258.167 288.5,259.5 Z"/></g>
<g><path style="opacity:0.004" fill="#000000" d="M 251.5,259.5 C 252.833,260.167 252.833,260.167 251.5,259.5 Z"/></g>
<g><path style="opacity:0.004" fill="#000000" d="M 306.5,261.5 C 307.833,262.167 307.833,262.167 306.5,261.5 Z"/></g>
<g><path style="opacity:0.016" fill="#000000" d="M 309.5,261.5 C 310.833,262.167 310.833,262.167 309.5,261.5 Z"/></g>
<g><path style="opacity:0.004" fill="#000000" d="M 249.5,262.5 C 250.833,263.167 250.833,263.167 249.5,262.5 Z"/></g>
<g><path style="opacity:0.012" fill="#000000" d="M 278.5,262.5 C 279.833,263.167 279.833,263.167 278.5,262.5 Z"/></g>
<g><path style="opacity:0.008" fill="#000000" d="M 280.5,267.5 C 279.833,266.167 279.833,266.167 280.5,267.5 Z"/></g>
<g><path style="opacity:0.004" fill="#000000" d="M 270.5,270.5 C 271.167,270.5 271.5,270.833 271.5,271.5C 271.167,271.167 270.833,270.833 270.5,270.5 Z"/></g>
<g><path style="opacity:0.004" fill="#000000" d="M 271.5,271.5 C 272.833,272.167 272.833,272.167 271.5,271.5 Z"/></g>
<g><path style="opacity:0.004" fill="#000000" d="M 273.5,272.5 C 274.833,273.167 274.833,273.167 273.5,272.5 Z"/></g>
<g><path style="opacity:0.008" fill="#000000" d="M 272.5,275.5 C 271.833,274.167 271.833,274.167 272.5,275.5 Z"/></g>
<g><path style="opacity:0.004" fill="#000000" d="M 266.5,275.5 C 267.833,276.167 267.833,276.167 266.5,275.5 Z"/></g>
<g><path style="opacity:0.008" fill="#000000" d="M 293.5,275.5 C 294.833,276.167 294.833,276.167 293.5,275.5 Z"/></g>
<g><path style="opacity:0.004" fill="#000000" d="M 267.5,277.5 C 268.833,278.167 268.833,278.167 267.5,277.5 Z"/></g>
<g><path style="opacity:0.004" fill="#000000" d="M 265.5,280.5 C 266.833,281.167 266.833,281.167 265.5,280.5 Z"/></g>
<g><path style="opacity:0.004" fill="#000000" d="M 265.5,281.5 C 264.833,282.167 264.833,282.167 265.5,281.5 Z"/></g>
<g><path style="opacity:0.008" fill="#000000" d="M 259.5,282.5 C 260.833,283.167 260.833,283.167 259.5,282.5 Z"/></g>
<g><path style="opacity:0.004" fill="#000000" d="M 232.5,286.5 C 233.833,287.167 233.833,287.167 232.5,286.5 Z"/></g>
<g><path style="opacity:0.004" fill="#000000" d="M 257.5,288.5 C 258.833,289.167 258.833,289.167 257.5,288.5 Z"/></g>
<g><path style="opacity:0.004" fill="#000000" d="M 257.5,289.5 C 256.833,290.167 256.833,290.167 257.5,289.5 Z"/></g>
<g><path style="opacity:0.008" fill="#000000" d="M 251.5,290.5 C 252.833,291.167 252.833,291.167 251.5,290.5 Z"/></g>
<g><path style="opacity:0.004" fill="#000000" d="M 251.5,291.5 C 250.833,292.167 250.833,292.167 251.5,291.5 Z"/></g>
<g><path style="opacity:0.004" fill="#000000" d="M 274.5,293.5 C 275.833,294.167 275.833,294.167 274.5,293.5 Z"/></g>
<g><path style="opacity:0.006" fill="#000000" d="M 227.5,296.5 C 226.761,296.631 226.094,296.464 225.5,296C 226.437,295.308 227.103,295.475 227.5,296.5 Z"/></g>
<g><path style="opacity:0.004" fill="#000000" d="M 249.5,296.5 C 250.833,297.167 250.833,297.167 249.5,296.5 Z"/></g>
<g><path style="opacity:0.006" fill="#000000" d="M 225.5,299.5 C 224.475,299.103 224.308,298.437 225,297.5C 225.464,298.094 225.631,298.761 225.5,299.5 Z"/></g>
<g><path style="opacity:0.004" fill="#000000" d="M 249.5,297.5 C 248.833,298.167 248.833,298.167 249.5,297.5 Z"/></g>
<g><path style="opacity:0.004" fill="#000000" d="M 270.5,297.5 C 271.833,298.167 271.833,298.167 270.5,297.5 Z"/></g>
<g><path style="opacity:0.004" fill="#000000" d="M 242.5,304.5 C 243.167,303.167 243.833,303.167 244.5,304.5C 243.833,304.5 243.167,304.5 242.5,304.5 Z"/></g>
<g><path style="opacity:0.004" fill="#000000" d="M 216.5,304.5 C 217.833,305.167 217.833,305.167 216.5,304.5 Z"/></g>
<g><path style="opacity:0.012" fill="#000000" d="M 242.5,304.5 C 241.833,305.167 241.833,305.167 242.5,304.5 Z"/></g>
<g><path style="opacity:0.012" fill="#000000" d="M 241.5,305.5 C 240.833,306.167 240.833,306.167 241.5,305.5 Z"/></g>
<g><path style="opacity:0.008" fill="#000000" d="M 262.5,305.5 C 263.833,306.167 263.833,306.167 262.5,305.5 Z"/></g>
<g><path style="opacity:0.004" fill="#000000" d="M 218.5,306.5 C 219.833,307.167 219.833,307.167 218.5,306.5 Z"/></g>
<g><path style="opacity:0.004" fill="#000000" d="M 234.5,307.5 C 235.833,308.167 235.833,308.167 234.5,307.5 Z"/></g>
<g><path style="opacity:0.004" fill="#000000" d="M 261.5,307.5 C 262.833,308.167 262.833,308.167 261.5,307.5 Z"/></g>
<g><path style="opacity:0.004" fill="#000000" d="M 259.5,308.5 C 260.833,309.167 260.833,309.167 259.5,308.5 Z"/></g>
<g><path style="opacity:0.012" fill="#000000" d="M 216.5,312.5 C 215.833,311.167 215.833,311.167 216.5,312.5 Z"/></g>
<g><path style="opacity:0.008" fill="#000000" d="M 234.5,311.5 C 235.833,312.167 235.833,312.167 234.5,311.5 Z"/></g>
<g><path style="opacity:0.006" fill="#000000" d="M 232.5,312.5 C 233.525,312.897 233.692,313.563 233,314.5C 232.536,313.906 232.369,313.239 232.5,312.5 Z"/></g>
<g><path style="opacity:0.004" fill="#000000" d="M 227.5,314.5 C 228.833,315.167 228.833,315.167 227.5,314.5 Z"/></g>
<g><path style="opacity:0.004" fill="#000000" d="M 227.5,315.5 C 226.833,316.167 226.833,316.167 227.5,315.5 Z"/></g>
<g><path style="opacity:0.004" fill="#000000" d="M 211.5,319.5 C 210.833,318.167 210.833,318.167 211.5,319.5 Z"/></g>
<g><path style="opacity:0.008" fill="#000000" d="M 210.5,319.5 C 209.833,320.167 209.833,320.167 210.5,319.5 Z"/></g>
<g><path style="opacity:0.004" fill="#000000" d="M 224.5,320.5 C 223.833,319.167 223.833,319.167 224.5,320.5 Z"/></g>
<g><path style="opacity:0.024" fill="#000000" d="M 226.5,319.5 C 227.833,320.167 227.833,320.167 226.5,319.5 Z"/></g>
<g><path style="opacity:0.004" fill="#000000" d="M 224.5,320.5 C 225.833,321.167 225.833,321.833 224.5,322.5C 224.5,321.833 224.5,321.167 224.5,320.5 Z"/></g>
<g><path style="opacity:0.004" fill="#000000" d="M 209.5,322.5 C 208.833,321.167 208.833,321.167 209.5,322.5 Z"/></g>
<g><path style="opacity:0.004" fill="#000000" d="M 219.5,322.5 C 220.833,323.167 220.833,323.167 219.5,322.5 Z"/></g>
<g><path style="opacity:0.004" fill="#000000" d="M 224.5,322.5 C 223.833,323.167 223.833,323.167 224.5,322.5 Z"/></g>
<g><path style="opacity:0.004" fill="#000000" d="M 214.5,326.5 C 215.833,327.167 215.833,327.167 214.5,326.5 Z"/></g>
<g><path style="opacity:0.012" fill="#000000" d="M 237.5,333.5 C 238.833,334.167 238.833,334.167 237.5,333.5 Z"/></g>
<g><path style="opacity:0.004" fill="#000000" d="M 228.5,338.5 C 229.833,339.167 229.833,339.167 228.5,338.5 Z"/></g>
<g><path style="opacity:0.016" fill="#000000" d="M 229.5,341.5 C 230.833,342.167 230.833,342.167 229.5,341.5 Z"/></g>
<g><path style="opacity:0.008" fill="#000000" d="M 204.5,344.5 C 203.833,343.167 203.833,343.167 204.5,344.5 Z"/></g>
<g><path style="opacity:0.004" fill="#000000" d="M 221.5,349.5 C 222.833,350.167 222.833,350.167 221.5,349.5 Z"/></g>
<g><path style="opacity:0.008" fill="#000000" d="M 214.5,358.5 C 213.833,357.167 213.833,357.167 214.5,358.5 Z"/></g>
<g><path style="opacity:0.012" fill="#000000" d="M 211.5,358.5 C 212.833,359.167 212.833,359.167 211.5,358.5 Z"/></g>
<g><path style="opacity:0.004" fill="#000000" d="M 214.5,358.5 C 215.833,359.167 215.833,359.167 214.5,358.5 Z"/></g>
<g><path style="opacity:0.012" fill="#000000" d="M 186.5,360.5 C 187.833,361.167 187.833,361.167 186.5,360.5 Z"/></g>
<g><path style="opacity:0.004" fill="#000000" d="M 184.5,362.5 C 185.833,363.167 185.833,363.167 184.5,362.5 Z"/></g>
<g><path style="opacity:0.004" fill="#000000" d="M 202.5,364.5 C 203.833,365.167 203.833,365.167 202.5,364.5 Z"/></g>
<g><path style="opacity:0.004" fill="#000000" d="M 176.5,370.5 C 177.833,371.167 177.833,371.167 176.5,370.5 Z"/></g>
<g><path style="opacity:0.004" fill="#000000" d="M 176.5,371.5 C 175.833,372.167 175.833,372.167 176.5,371.5 Z"/></g>
<g><path style="opacity:0.004" fill="#000000" d="M 175.5,382.5 C 176.833,383.167 176.833,383.167 175.5,382.5 Z"/></g>
<g><path style="opacity:0.004" fill="#000000" d="M 109.5,385.5 C 111.337,385.639 111.67,386.306 110.5,387.5C 109.702,387.043 109.369,386.376 109.5,385.5 Z"/></g>
</svg>
